# xmcd CD database file
#
# Track frame offsets:
#	150
#	16112
#	29062
#	100577
#	116590
#	132430
#	146715
#	158450
#	171915
#	185310
#	199775
#	212800
#	228615
#	244147
#	258262
#	272280
#
# Disc length: 3821 seconds
#
# Revision: 0
# Processed by: cddbd v1.4PL0 Copyright (c) Steve Scherf et al.
# Submitted via: CDex 1.50beta10a
#
DISCID=da0eeb10
DTITLE=Charlie Parker - Round Midnight
DYEAR=2002
DGENRE=Jazz
TTITLE0=Easy To Love - C. Porter
TTITLE1=Night And Day - C. Porter
TTITLE2=What Is This Thing Called Love - C. Porter
TTITLE3=Temptation - N. Herb Brown - A. Freed
TTITLE4=Autumn In New York - V. Duke
TTITLE5=I Can't Get Started - V. Duke - I. Gershwin
TTITLE6=Almost Like Being in Love - F. Loewe - A. Jay Lerner
TTITLE7=Laura - D.Raskin - J. Mercer
TTITLE8=Stella By Starlight - V. Young - N. Washington
TTITLE9=Dancing In the Dark - H. Dietz - A. Schwartz
TTITLE10=I'm In the Moon For Love - J. Mc Hugh - D. Fields
TTITLE11=Star Eyes - G. De Paul - Don Raye
TTITLE12=Bloomdido - C. Parker
TTITLE13=She Rote - C. Parker
TTITLE14=My Little Suede Shoes - C. Parker
TTITLE15='Round Midnight
EXTD=YEAR: 2002
EXTT0=
EXTT1=
EXTT2=
EXTT3=
EXTT4=
EXTT5=
EXTT6=
EXTT7=
EXTT8=
EXTT9=
EXTT10=
EXTT11=
EXTT12=
EXTT13=
EXTT14=
EXTT15=
PLAYORDER=
